<svg width="200" height="200" viewBox="0 0 200 200" fill="none" xmlns="http://www.w3.org/2000/svg">
<g id="package_2">
<mask id="mask0_349_1242" style="mask-type:alpha" maskUnits="userSpaceOnUse" x="0" y="0" width="200" height="200">
<rect id="Bounding box" width="200" height="200" fill="#D9D9D9"/>
</mask>
<g mask="url(#mask0_349_1242)">
<path id="package_2_2" d="M97.0832 171.667V101.667L35.8332 66.2504V129.167C35.8332 131.389 36.3888 133.473 37.4999 135.417C38.611 137.362 40.1388 138.889 42.0832 140L97.0832 171.667ZM102.917 171.667L157.917 140C159.861 138.889 161.389 137.362 162.5 135.417C163.611 133.473 164.167 131.389 164.167 129.167V66.2504L102.917 101.667V171.667ZM132.708 77.7088L160.833 61.6671L106.25 30.2088C104.305 29.0976 102.222 28.5421 99.9999 28.5421C97.7777 28.5421 95.6943 29.0976 93.7499 30.2088L72.4999 42.5004L132.708 77.7088ZM99.9999 96.6671L126.875 81.0421L66.2499 46.0421L39.3749 61.4588L99.9999 96.6671Z" fill="#DAB021"/>
</g>
</g>
</svg>